<svg width="29" height="26" viewBox="0 0 29 26" fill="none" xmlns="http://www.w3.org/2000/svg">
<path fill-rule="evenodd" clip-rule="evenodd" d="M17.6835 23.4489C17.6856 23.4479 17.6876 23.4474 17.6891 23.4464C16.4197 22.1627 15.6409 20.3878 15.6409 18.4256C15.6409 17.3293 15.8858 16.2756 16.3332 15.3381C15.1503 14.9197 13.8803 14.6891 12.5529 14.6891C8.73487 14.6891 5.36482 16.5739 3.30644 19.467C1.86903 17.5385 1.00985 15.1462 1.00985 12.5534C1.00985 9.3645 2.3088 6.49377 4.38653 4.40129C6.47799 2.30931 9.36399 1.02512 12.5529 1.02512C15.7417 1.02512 18.6124 2.30931 20.7049 4.40129C22.5226 6.21891 23.735 8.64326 24.0236 11.3414C24.3845 11.399 24.7311 11.4855 25.0624 11.5863C24.8319 8.51295 23.4896 5.743 21.4262 3.67953C19.1611 1.39974 16.0155 0 12.5529 0C9.07539 0 5.94456 1.39974 3.66477 3.67953C1.39974 5.94507 0 9.09015 0 12.5529C0 16.0155 1.39974 19.1611 3.66477 21.4404C5.94456 23.7055 9.07539 25.1052 12.5529 25.1052C14.5298 25.1052 16.4197 24.6435 18.0785 23.821C17.963 23.7202 17.8622 23.6189 17.7472 23.5181C17.7253 23.4968 17.7054 23.4713 17.6835 23.4489Z" fill="#2A14AE"/>
<path fill-rule="evenodd" clip-rule="evenodd" d="M7.98547 9.30082C7.98547 11.8089 10.0472 13.8522 12.5559 13.8522C15.0646 13.8522 17.1067 11.8089 17.1067 9.30082C17.1067 6.79278 15.0639 4.74939 12.5559 4.74939C10.0479 4.74939 7.98547 6.79344 7.98547 9.30082Z" fill="#2A14AE"/>
<path fill-rule="evenodd" clip-rule="evenodd" d="M22.8391 12.2515C19.4196 12.2515 16.6639 15.0215 16.6639 18.4267C16.6639 21.8461 19.4196 24.6018 22.8391 24.6018C26.2437 24.6018 29 21.8456 29 18.4267C28.9995 15.0215 26.2437 12.2515 22.8391 12.2515ZM25.8549 18.9316H23.344V21.4562H22.3194V18.9316H19.8085V17.9217H22.3194V15.4114H23.344V17.9217H25.8549V18.9316Z" fill="#2A14AE"/>
</svg>
