<svg width="30" height="26" viewBox="0 0 30 26" fill="none" xmlns="http://www.w3.org/2000/svg">
<path fill-rule="evenodd" clip-rule="evenodd" d="M18.293 24.2572C18.2952 24.2561 18.2973 24.2556 18.2988 24.2545C16.9856 22.9266 16.18 21.0905 16.18 19.0607C16.18 17.9266 16.4333 16.8366 16.8961 15.8667C15.6725 15.4339 14.3587 15.1954 12.9855 15.1954C9.03595 15.1954 5.54973 17.1452 3.4204 20.138C1.93345 18.143 1.04465 15.6682 1.04465 12.986C1.04465 9.68728 2.38838 6.71759 4.53772 4.55299C6.70127 2.38891 9.68675 1.06045 12.9855 1.06045C16.2843 1.06045 19.254 2.38891 21.4186 4.55299C23.2989 6.43326 24.5531 8.94117 24.8516 11.7324C25.2249 11.7919 25.5835 11.8814 25.9263 11.9856C25.6878 8.80638 24.2993 5.94095 22.1647 3.80636C19.8216 1.44798 16.5676 0 12.9855 0C9.3882 0 6.14946 1.44798 3.79109 3.80636C1.44798 6.14998 0 9.40347 0 12.9855C0 16.5676 1.44798 19.8216 3.79109 22.1794C6.14946 24.5225 9.3882 25.9705 12.9855 25.9705C15.0306 25.9705 16.9856 25.4929 18.7016 24.6421C18.5821 24.5378 18.4779 24.433 18.3589 24.3288C18.3362 24.3067 18.3157 24.2803 18.293 24.2572Z" fill="white"/>
<path fill-rule="evenodd" clip-rule="evenodd" d="M8.2605 9.62096C8.2605 12.2154 10.3933 14.3293 12.9885 14.3293C15.5836 14.3293 17.6961 12.2154 17.6961 9.62096C17.6961 7.02648 15.5829 4.91266 12.9885 4.91266C10.394 4.91266 8.2605 7.02716 8.2605 9.62096Z" fill="white"/>
<path fill-rule="evenodd" clip-rule="evenodd" d="M23.6264 12.6742C20.0891 12.6742 17.2384 15.5396 17.2384 19.0622C17.2384 22.5995 20.0891 25.4502 23.6264 25.4502C27.1484 25.4502 29.9996 22.5989 29.9996 19.0622C29.9991 15.5396 27.1484 12.6742 23.6264 12.6742ZM26.7461 19.5845H24.1487V22.1961H23.0888V19.5845H20.4914V18.5398H23.0888V15.943H24.1487V18.5398H26.7461V19.5845Z" fill="white"/>
</svg>
