<svg width="26" height="26" viewBox="0 0 26 26" fill="none" xmlns="http://www.w3.org/2000/svg">
<circle cx="13" cy="13" r="13" transform="rotate(-180 13 13)" fill="#EDEDFF"/>
<path d="M8.04258 13.0036C8.04258 13.2952 8.15876 13.5548 8.39113 13.7822L11.6911 16.9783C11.8691 17.1464 12.0817 17.2305 12.3289 17.2305C12.5662 17.2305 12.7615 17.1514 12.9147 16.9932C13.068 16.835 13.1446 16.6323 13.1446 16.3851C13.1446 16.1379 13.0531 15.9278 12.8702 15.7548L11.6985 14.6573L10.69 13.8712L12.5365 13.9676L17.0675 13.9676C17.3344 13.9676 17.5544 13.8749 17.7275 13.6895C17.9005 13.5041 17.987 13.273 17.987 12.9962C17.987 12.7242 17.9005 12.4968 17.7275 12.3139C17.5544 12.131 17.3344 12.0395 17.0675 12.0395L12.5365 12.0395L10.6826 12.1359L11.6837 11.3499L12.8702 10.2524C13.0531 10.0942 13.1446 9.88159 13.1446 9.61463C13.1446 9.37238 13.068 9.17092 12.9147 9.01024C12.7615 8.84957 12.5662 8.76924 12.3289 8.76924C12.0866 8.76924 11.874 8.85575 11.6911 9.02878L8.39113 12.2175C8.15876 12.4449 8.04258 12.7069 8.04258 13.0036Z" fill="#2A14AE"/>
</svg>
