<svg width="28" height="27" viewBox="0 0 28 27" fill="none" xmlns="http://www.w3.org/2000/svg">
<path d="M26.3038 11.384V20.2345H27.3172V22.0451H20.5893V20.2345H21.6027V11.384H20.5893V9.57342H27.3172V11.384H26.3038ZM0.700533 20.2345V22.0451H7.41072V20.2345H6.39726V11.384H7.41072V9.57342H0.682753V11.384H1.69622V20.2345H0.700533ZM20.0203 15.8109C20.0203 16.9212 19.6672 18.0067 19.0057 18.9299C18.3442 19.8531 17.4039 20.5727 16.3039 20.9976C15.2038 21.4225 13.9933 21.5337 12.8255 21.3171C11.6577 21.1005 10.5849 20.5658 9.74299 19.7806C8.90103 18.9955 8.32765 17.9952 8.09536 16.9061C7.86306 15.8171 7.98228 14.6883 8.43795 13.6625C8.89361 12.6366 9.66525 11.7599 10.6553 11.143C11.6453 10.5261 12.8093 10.1968 14 10.1968C15.5961 10.1986 17.1263 10.7906 18.2549 11.8431C19.3836 12.8956 20.0184 14.3225 20.0203 15.8109ZM16.7168 16.9019C16.7168 16.4996 16.5457 16.1138 16.241 15.8291C15.9364 15.5444 15.523 15.384 15.0917 15.3831H12.9083C12.7602 15.3831 12.6182 15.3283 12.5135 15.2306C12.4088 15.133 12.35 15.0006 12.35 14.8625C12.35 14.7244 12.4088 14.592 12.5135 14.4944C12.6182 14.3967 12.7602 14.3419 12.9083 14.3419H16.1834V13.3471H14.5334V12.6839H13.4666V13.3471H12.9083C12.4773 13.3471 12.064 13.5067 11.7592 13.7909C11.4544 14.0751 11.2832 14.4606 11.2832 14.8625C11.2832 15.2644 11.4544 15.6499 11.7592 15.9341C12.064 16.2183 12.4773 16.3779 12.9083 16.3779H15.0917C15.2325 16.3884 15.364 16.448 15.4598 16.5448C15.5557 16.6416 15.6089 16.7685 15.6089 16.9002C15.6089 17.032 15.5557 17.1589 15.4598 17.2557C15.364 17.3525 15.2325 17.412 15.0917 17.4225H11.8166V18.4173H13.4666V18.9479H14.5334V18.4173H15.0917C15.5224 18.4164 15.9352 18.2565 16.2398 17.9725C16.5443 17.6885 16.7158 17.3035 16.7168 16.9019ZM0.00355609 26.85H28V23.0399H0L0.00355609 26.85ZM14 3.63107C13.7623 3.63107 13.5299 3.6968 13.3322 3.81996C13.1346 3.94312 12.9805 4.11817 12.8896 4.32297C12.7986 4.52777 12.7748 4.75313 12.8212 4.97055C12.8675 5.18797 12.982 5.38768 13.1501 5.54443C13.3182 5.70118 13.5324 5.80793 13.7655 5.85118C13.9987 5.89442 14.2403 5.87223 14.46 5.78739C14.6796 5.70256 14.8673 5.5589 14.9994 5.37459C15.1314 5.19027 15.2019 4.97357 15.2019 4.75189C15.2019 4.45463 15.0753 4.16954 14.8499 3.95935C14.6245 3.74915 14.3188 3.63107 14 3.63107ZM28 5.11334V8.5786H0V5.11334L14 0L28 5.11334ZM16.2652 4.75189C16.2659 4.33317 16.1333 3.92368 15.8843 3.57526C15.6353 3.22684 15.281 2.95516 14.8663 2.79462C14.4516 2.63408 13.9951 2.5919 13.5547 2.67343C13.1143 2.75496 12.7097 2.95652 12.3922 3.2526C12.0747 3.54867 11.8586 3.92595 11.7711 4.33665C11.6837 4.74735 11.7289 5.17301 11.9011 5.55972C12.0732 5.94644 12.3646 6.27682 12.7382 6.50904C13.1119 6.74126 13.551 6.86486 14 6.86421C14.6011 6.86421 15.1776 6.64177 15.603 6.24573C16.0283 5.84968 16.2678 5.31242 16.2687 4.75189H16.2652Z" fill="white"/>
</svg>
