<svg width="26" height="26" viewBox="0 0 26 26" fill="none" xmlns="http://www.w3.org/2000/svg">
<path d="M12.9937 26C20.1189 26 26 20.1161 26 13C26 5.88395 20.1063 0 12.9812 0C5.86854 0 0 5.88395 0 13C0 20.1161 5.8811 26 12.9937 26ZM12.9937 23.4101C7.22571 23.4101 2.61382 18.7708 2.61382 13C2.61382 7.22921 7.22571 2.60251 12.9812 2.60251C18.7492 2.60251 23.3862 7.22921 23.3987 13C23.4113 18.7708 18.7617 23.4101 12.9937 23.4101ZM7.57757 17.413H18.4224C19.101 17.413 19.5157 17.0358 19.5157 16.4826C19.5157 15.766 18.8623 15.1625 18.2465 14.5716C17.7564 14.0938 17.681 13.1132 17.593 12.2205C17.4925 9.73114 16.7511 7.98356 15.0043 7.34236C14.7153 6.44971 13.999 5.77079 12.9937 5.77079C12.001 5.77079 11.2847 6.44971 10.9957 7.34236C9.23635 7.98356 8.50749 9.73114 8.40696 12.2205C8.31899 13.1132 8.21846 14.0938 7.74094 14.5716C7.15031 15.175 6.48429 15.766 6.48429 16.4826C6.48429 17.0358 6.89898 17.413 7.57757 17.413ZM12.9937 20.3424C14.2001 20.3424 15.0672 19.5 15.1551 18.4816H10.8449C10.9328 19.5 11.7999 20.3424 12.9937 20.3424Z" fill="white"/>
</svg>
