<svg width="10" height="16" viewBox="0 0 10 16" fill="none" xmlns="http://www.w3.org/2000/svg">
<path d="M9.16767 8.00003C9.1595 7.71438 9.05341 7.45322 8.82489 7.24103L2.47542 1.03846C2.29587 0.858915 2.06736 0.76098 1.79803 0.76098C1.25939 0.76098 0.826843 1.18537 0.826843 1.72401C0.826843 1.98517 0.932939 2.23817 1.12065 2.42588L6.8417 7.99187L1.12065 13.5742C0.941101 13.7619 0.826843 14.0067 0.826843 14.276C0.826843 14.8147 1.25939 15.2391 1.79804 15.2391C2.06736 15.2391 2.29587 15.1411 2.47542 14.9616L8.82489 8.75086C9.05341 8.53051 9.16767 8.28567 9.16767 8.00003Z" fill="white"/>
</svg>
