<svg width="26" height="26" viewBox="0 0 26 26" fill="none" xmlns="http://www.w3.org/2000/svg">
<circle cx="13" cy="13" r="13" transform="rotate(-180 13 13)" fill="#EDEDFF"/>
<path d="M14.6692 13.2552L18.2042 9.71916C18.6012 9.33516 18.6122 8.70216 18.2282 8.30516C17.8442 7.90816 17.2112 7.89716 16.8142 8.28016C16.8062 8.28816 16.7972 8.29616 16.7902 8.30516L13.2552 11.8402L9.71916 8.30616C9.33616 7.90816 8.70316 7.89816 8.30616 8.28116C7.90816 8.66516 7.89816 9.29816 8.28116 9.69516C8.28916 9.70316 8.29816 9.71216 8.30616 9.72016L11.8402 13.2552L8.30516 16.7912C7.90816 17.1752 7.89716 17.8082 8.28016 18.2052C8.66416 18.6022 9.29716 18.6132 9.69416 18.2292C9.70216 18.2212 9.71116 18.2132 9.71816 18.2052L13.2552 14.6692L16.7912 18.2042C17.1752 18.6012 17.8082 18.6122 18.2052 18.2282C18.6022 17.8442 18.6132 17.2112 18.2292 16.8142C18.2212 16.8062 18.2132 16.7972 18.2052 16.7902L14.6692 13.2552Z" fill="#2A14AE"/>
</svg>
