<svg width="29" height="21" viewBox="0 0 29 21" fill="none" xmlns="http://www.w3.org/2000/svg">
<path d="M3.86865 20.75C5.35278 20.75 6.3521 20.11 7.24258 18.9535L9.00375 16.6292C9.25111 16.2923 9.50836 16.1464 9.81508 16.1464H19.1849C19.4916 16.1464 19.7489 16.2923 19.9962 16.6292L21.7574 18.9535C22.6479 20.11 23.6571 20.75 25.1314 20.75C27.4169 20.75 29 19.0321 29 16.2923C29 15.1134 28.7724 13.7772 28.3866 12.295C27.7731 9.97078 26.7144 6.83807 25.7052 4.42397C24.8444 2.38041 24.3794 1.38109 22.2027 0.81967C20.2931 0.325622 17.681 0 14.5049 0C11.3289 0 8.70693 0.325622 6.79734 0.81967C4.6305 1.38109 4.15558 2.38041 3.29478 4.42397C2.28557 6.83807 1.22689 9.97078 0.613443 12.295C0.227567 13.7772 0 15.1134 0 16.2923C0 19.0321 1.58308 20.75 3.86865 20.75ZM6.42136 8.18547C6.42136 7.57914 6.76766 7.18615 7.32173 7.18615H8.98396V5.36715C8.98396 4.73837 9.32037 4.33415 9.86455 4.33415C10.3988 4.33415 10.7352 4.73837 10.7352 5.36715V7.18615H12.2985C12.9021 7.18615 13.2682 7.57914 13.2682 8.18547C13.2682 8.81426 12.9021 9.20725 12.2985 9.20725H10.7352V11.0375C10.7352 11.6663 10.3988 12.0705 9.86455 12.0705C9.32037 12.0705 8.98396 11.6663 8.98396 11.0375V9.20725H7.32173C6.76766 9.20725 6.42136 8.81426 6.42136 8.18547ZM19.1354 6.42262C19.1354 5.47944 19.7786 4.74959 20.5998 4.74959C21.4309 4.74959 22.0641 5.47944 22.0641 6.42262C22.0641 7.3658 21.4309 8.08442 20.5998 8.08442C19.7786 8.08442 19.1354 7.3658 19.1354 6.42262ZM16.1969 9.80235C16.1969 8.85917 16.84 8.12933 17.6612 8.12933C18.4824 8.12933 19.1256 8.85917 19.1256 9.80235C19.1256 10.7343 18.4824 11.4529 17.6612 11.4529C16.84 11.4529 16.1969 10.7343 16.1969 9.80235Z" fill="#2A14AE"/>
</svg>
