<svg width="157" height="26" viewBox="0 0 157 26" fill="none" xmlns="http://www.w3.org/2000/svg">
<path fill-rule="evenodd" clip-rule="evenodd" d="M146.692 11.2295C147.15 10.8096 147.599 10.4071 148.037 10.0141C149.159 9.00861 150.21 8.06612 151.163 7.05797C152.002 6.17635 152.88 5.76542 154.114 5.90489C154.57 5.95607 155.032 5.94596 155.609 5.93333C155.903 5.9269 156.226 5.91983 156.594 5.91983C156.284 6.20741 155.99 6.47964 155.708 6.74089L155.682 6.76552L155.677 6.76972C154.956 7.43795 154.312 8.03493 153.671 8.63444C153.067 9.20034 152.467 9.7685 151.848 10.3556L151.837 10.3663L151.827 10.3751C151.532 10.6549 151.232 10.9392 150.925 11.2295L157 19.3285C156.619 19.3285 156.259 19.3335 155.913 19.3384C155.07 19.3502 154.314 19.3607 153.567 19.2936C153.229 19.2637 152.867 18.8652 152.631 18.5465C151.674 17.2915 150.737 16.0237 149.819 14.7829C149.462 14.3 149.108 13.8212 148.757 13.3489C146.602 14.2127 146.663 15.7899 146.726 17.3853C146.751 18.0207 146.775 18.659 146.66 19.2562H143.584V0H146.692V11.2295ZM125.623 16.9117L126.6 18.3911C124.071 20.5104 121.762 20.1344 120.147 17.4472C117.93 19.7284 115.236 20.2763 112.188 19.3524C110.476 18.8344 109.334 17.7709 109.137 15.9927C108.959 14.3989 109.782 12.9594 111.645 12.3218C112.894 11.8933 114.219 11.6641 115.543 11.4351C116.02 11.3527 116.496 11.2703 116.968 11.1787C117.237 11.1274 117.516 11.1091 117.793 11.0909C118.176 11.0658 118.556 11.0408 118.905 10.9296C119.414 10.7628 120.2 10.3344 120.197 10.0306C120.17 9.73834 120.077 9.45507 119.925 9.19988C119.772 8.94468 119.564 8.7235 119.314 8.55125C116.937 7.11924 113.889 7.98593 112.162 10.566L109.462 9.61966C109.921 7.62729 111.436 6.69337 113.155 6.06079C114.311 5.61231 115.549 5.38602 116.798 5.39499C118.047 5.40397 119.282 5.64804 120.431 6.1131C122.506 6.94491 123.526 8.47405 123.576 10.576C123.602 11.5636 123.599 12.5519 123.596 13.5402C123.594 14.3363 123.592 15.1324 123.605 15.928C123.605 16.3439 123.709 16.984 123.982 17.1135C124.218 17.2206 124.55 17.1431 124.963 17.0468C125.164 16.9999 125.385 16.9484 125.623 16.9117ZM120.119 12.9718C119.459 13.0605 118.809 13.1384 118.166 13.2155C117.002 13.3549 115.861 13.4916 114.73 13.6841C113.642 13.8709 112.413 14.2544 112.418 15.5096C112.418 16.8071 113.671 17.0313 114.777 17.2056C114.816 17.2119 114.855 17.2185 114.894 17.2252C115.027 17.2477 115.162 17.2707 115.301 17.2803C118.281 17.5219 120.428 15.679 120.124 12.9718H120.119ZM1.67739 20.2697L0 22.4015C0.188016 22.5527 0.362224 22.7036 0.530423 22.8493L0.530472 22.8493L0.530513 22.8494L0.530544 22.8494C0.880472 23.1525 1.2044 23.4331 1.57255 23.6467C4.08863 25.0813 6.80653 25.6839 9.72361 25.1858C14.3207 24.4063 16.4594 21.9881 16.4856 17.5775V10.9853V6.00434H13.7022L13.2514 7.89459C9.41695 4.96332 5.78698 4.72174 3.09268 7.16239C0.592324 9.42871 0.238512 14.0336 2.35097 16.8154C4.61806 19.8015 8.19037 19.9758 13.1465 17.3409C13.2907 19.4105 12.7088 20.9047 11.1599 21.7316C7.65832 23.5994 4.5604 22.4912 1.67739 20.2697ZM8.67524 16.6909C5.94949 16.6162 4.23803 14.9052 4.30093 12.3127C4.37694 9.67526 6.16965 8.07639 9.01858 8.14363C11.6238 8.20091 13.3876 10.0439 13.309 12.6265C13.2356 15.0073 11.2333 16.7631 8.67524 16.6909ZM64.4264 20.2192L62.6835 22.224L62.3087 22.6549C62.7544 22.9178 63.2156 23.1565 63.6899 23.3696C64.1648 23.558 64.6369 23.7718 65.1093 23.9858C66.2612 24.5076 67.4155 25.0305 68.6198 25.1877C73.2982 25.8028 78.6527 24.2637 78.3172 17.4872C78.1997 15.1192 78.2294 12.743 78.2591 10.3666V10.3665V10.3664V10.3664V10.3663V10.3662V10.3661V10.3661V10.366C78.2724 9.29851 78.2858 8.231 78.2858 7.16421V5.9688H74.9834V7.49296C74.9772 8.15033 74.9788 8.80986 74.9804 9.47029V9.47083V9.47137V9.47192V9.47246V9.47301V9.47355V9.4741V9.47464C74.9842 11.0521 74.988 12.6346 74.8865 14.2048C74.7607 16.1548 72.9286 17.5021 70.7978 17.4423C68.8479 17.3851 67.6134 16.2021 67.4719 14.1475C67.4138 13.2954 67.42 12.4389 67.4261 11.5837V11.5833V11.583V11.5827V11.5823V11.582V11.5816V11.5813V11.581C67.428 11.3172 67.4299 11.0536 67.4299 10.7903V5.9912H64.2036C64.2036 6.95129 64.1811 7.90633 64.1587 8.85639C64.109 10.9647 64.0599 13.0486 64.2586 15.1088C64.6963 19.6713 69.9277 21.6413 73.7568 18.8445C74.0074 18.662 74.2504 18.4722 74.5124 18.2675L74.5134 18.2667C74.6265 18.1784 74.7431 18.0873 74.8655 17.9927C75.0673 20.406 74.1369 21.8181 71.8462 22.3685C69.013 23.0533 66.5048 22.4382 64.4264 20.2192ZM49.1266 18.3607L48.1778 16.8963C47.9629 16.9263 47.7534 16.9735 47.5553 17.0181C47.1276 17.1145 46.7524 17.1991 46.4873 17.0731C46.1938 16.9287 46.1047 16.2239 46.1047 15.7656C46.0866 14.8659 46.087 13.9673 46.0873 13.0697V13.0697V13.0696V13.0696V13.0695V13.0695V13.0694C46.0876 12.141 46.088 11.2135 46.068 10.2866C46.0313 8.52338 45.1454 7.21837 43.5388 6.34671C40.7003 4.8101 35.9958 5.18617 33.5505 7.24578C33.08 7.6439 32.7214 8.16085 32.3394 8.7115C32.1574 8.97378 31.9702 9.24372 31.763 9.51209L34.6722 10.5506C34.7658 10.4246 34.8497 10.3066 34.9298 10.1941C35.027 10.0576 35.1185 9.92905 35.2147 9.80347C36.6825 7.8908 39.8249 7.26071 41.8955 8.55824C42.1442 8.73403 42.3505 8.95829 42.5005 9.216C42.6506 9.47371 42.741 9.75892 42.7656 10.0525C42.7656 10.3539 41.9793 10.7623 41.4551 10.9267C41.1037 11.0361 40.7251 11.0614 40.3447 11.0869C40.0669 11.1055 39.7882 11.1242 39.5183 11.1757C39.0452 11.2676 38.5682 11.3504 38.0909 11.4332C36.7702 11.6624 35.4473 11.8919 34.1978 12.3164C32.3658 12.9415 31.4799 14.4382 31.6687 15.9848C31.8836 17.7431 33.0132 18.8314 34.7273 19.3469C37.8304 20.2759 40.564 19.7255 42.7735 17.3321C43.9057 20.104 46.7677 20.5897 49.1266 18.3607ZM41.6354 13.1048L41.6355 13.1048L41.6355 13.1048L41.6356 13.1048L41.6357 13.1048L41.6358 13.1047L41.6359 13.1047C42.0174 13.0659 42.4094 13.026 42.8154 12.9813C42.8547 14.6474 42.3384 15.9599 40.8288 16.6946C39.1016 17.5164 37.2774 17.621 35.5869 16.6248C34.5621 16.0147 34.7692 14.6499 36.001 14.1344C36.893 13.7627 37.8916 13.6003 38.8662 13.4418L39.0177 13.4171C39.8632 13.2853 40.7192 13.1981 41.6354 13.1048ZM89.4544 17.0571C86.6186 17.976 84.2624 17.077 82.7999 14.6563L79.7937 15.2814C80.0304 15.6196 80.2364 15.9535 80.4331 16.2725L80.4332 16.2726C80.8334 16.9214 81.1957 17.5088 81.7017 17.9462C84.2231 20.1303 89.2919 20.4267 92.133 18.636C93.5299 17.7569 94.366 16.5042 94.1878 14.858C94.0148 13.2591 92.8695 12.3924 91.3624 11.9168C90.6556 11.7043 89.9373 11.5281 89.2107 11.3888C88.7706 11.2982 88.3271 11.2181 87.8835 11.138L87.8834 11.138L87.8833 11.138L87.8833 11.138L87.8832 11.138C86.9978 10.9782 86.1121 10.8183 85.2531 10.5744C84.763 10.4374 84.0081 9.81979 84.0632 9.54335C84.1357 9.24325 84.2707 8.95998 84.4602 8.7102C84.6497 8.46042 84.8899 8.24919 85.1666 8.08893C87.0903 7.12263 89.2657 7.85483 90.5552 9.81233L93.3701 9.04775C93.1828 8.79863 93.0168 8.54951 92.8565 8.30902L92.8564 8.3089C92.5456 7.84261 92.2565 7.40878 91.8761 7.07033C89.7925 5.21992 85.5885 4.8837 83.1537 6.27338C81.589 7.16496 80.7267 8.40521 80.9417 10.1809C81.1435 11.8769 82.3779 12.6514 83.9505 13.0748C84.6293 13.26 85.3255 13.3907 86.0208 13.5211L86.0214 13.5213C86.1393 13.5434 86.2571 13.5655 86.3748 13.5879C86.7188 13.6537 87.0693 13.7032 87.4195 13.7527C88.1556 13.8568 88.8906 13.9607 89.5619 14.2155C89.9865 14.3779 90.3159 14.7703 90.6445 15.1615C90.7945 15.3402 90.9444 15.5187 91.103 15.6749C90.9305 15.8245 90.7665 15.9971 90.6025 16.1697L90.6024 16.1698C90.2479 16.5428 89.8934 16.9157 89.4544 17.0571ZM141.697 14.3412C141.029 17.935 137.166 20.2212 133.048 19.7455C128.69 19.2474 126.071 16.4407 126.124 12.5232C126.171 8.7601 128.878 5.79894 132.608 5.42537C136.521 5.03188 139.873 6.89972 140.67 10.0277L137.737 10.8073C136.225 8.26201 134.833 7.56966 132.516 8.19975C130.624 8.7103 129.305 10.6578 129.429 12.7648C129.56 15.046 130.946 16.6175 133.213 17.0533C135.643 17.5191 137.501 16.4531 138.756 13.7958L141.697 14.3412ZM94.3243 8.26837H97.4196C97.4196 10.5247 97.4196 12.5918 97.4248 14.644C97.4039 16.7559 98.08 18.4842 100.287 19.3758C102.441 20.2425 105.256 19.7544 106.865 18.2302C108.422 16.7583 108.299 16.076 106.341 15.1097C106.209 15.2646 106.084 15.4264 105.96 15.5877L105.96 15.5878L105.96 15.588L105.96 15.588C105.695 15.9321 105.432 16.2738 105.101 16.5417C103.571 17.7794 101.089 17.234 100.929 15.5206C100.777 13.8715 100.81 12.2067 100.844 10.4958C100.859 9.75207 100.874 8.99963 100.874 8.23599H107.114V5.87753H100.772V1.3947L97.4196 2.0721V5.94229H94.3243V8.26837ZM62.7126 6.0145C62.4245 6.68584 62.138 7.35431 61.8525 8.02028L61.8525 8.02034C60.2964 11.6506 58.7722 15.2065 57.2087 18.7482C57.1251 18.938 56.8555 19.0548 56.5879 19.1708C56.4692 19.2223 56.3509 19.2736 56.2494 19.331C56.2285 19.3442 56.1972 19.3399 56.1654 19.3355C56.1494 19.3332 56.1333 19.331 56.1183 19.331C52.9182 19.4256 52.9156 19.4256 51.7021 16.5915C50.2466 13.1795 48.7946 9.76762 47.3461 6.35569C47.3169 6.21379 47.3028 6.06944 47.3042 5.92485C48.2757 5.88613 49.2486 5.89859 50.2187 5.9622C50.5043 5.99457 50.8398 6.46029 50.9761 6.78654C51.8999 9.04105 52.802 11.3052 53.7039 13.5687L53.7041 13.5692C54.0176 14.356 54.331 15.1428 54.6454 15.929C54.6905 16.0407 54.7435 16.1486 54.8238 16.3122C54.8742 16.4149 54.9355 16.5396 55.0123 16.7011L55.7289 14.9267C56.4502 13.1407 57.1336 11.4487 57.8141 9.75518C57.9121 9.51238 58.0058 9.2675 58.0998 9.02201L58.0998 9.02194L58.1 9.02138C58.1843 8.80123 58.2687 8.58059 58.3566 8.36051C59.4155 5.70319 59.4155 5.70319 62.7126 6.0145ZM22.1754 7.87731L21.6513 5.99452H19.0723V19.2388H22.2515C22.2515 18.6071 22.2457 17.9837 22.2399 17.3665C22.2264 15.9056 22.2132 14.4791 22.2777 13.0575C22.3227 11.9035 22.5253 10.7599 22.8805 9.6555C23.2474 8.54476 24.7702 7.78018 25.9417 8.00183C27.1133 8.22348 27.834 8.96067 27.9965 10.1287C28.0428 10.3 28.106 10.4668 28.1852 10.6268L30.9319 9.80742C30.5178 7.91965 29.9622 6.33821 27.986 5.69069C25.525 4.88877 23.6903 5.80276 22.1754 7.87731Z" fill="white"/>
</svg>
