<svg width="40" height="35" viewBox="0 0 40 35" fill="none" xmlns="http://www.w3.org/2000/svg">
<path d="M0.980469 16.7191C0.980469 17.3825 1.49821 18.0135 2.37189 18.0135C2.82491 18.0135 3.19703 17.7708 3.5368 17.4957L19.7323 3.9051C20.0882 3.58152 20.5251 3.58152 20.881 3.9051L37.0765 17.4957C37.4001 17.7708 37.7722 18.0135 38.2252 18.0135C38.9857 18.0135 39.6005 17.5443 39.6005 16.7677C39.6005 16.2823 39.4387 15.9587 39.0989 15.6675L34.5687 11.8491V5.37742C34.5687 4.66553 34.1157 4.21251 33.4038 4.21251H31.6726C30.9769 4.21251 30.5077 4.66553 30.5077 5.37742V8.43531L22.2563 1.51057C21.059 0.49127 19.5705 0.49127 18.357 1.51057L1.49821 15.6675C1.14226 15.9587 0.980469 16.347 0.980469 16.7191ZM6.02841 31.1511C6.02841 33.4 7.38747 34.7267 9.66875 34.7267H30.9445C33.2258 34.7267 34.5687 33.4 34.5687 31.1511V18.337L21.2693 7.1895C20.6545 6.67177 19.9264 6.68795 19.3278 7.1895L6.02841 18.337V31.1511ZM24.4566 32.1218H16.1081V21.4273C16.1081 20.683 16.6097 20.1977 17.3539 20.1977H23.227C23.9713 20.1977 24.4566 20.683 24.4566 21.4273V32.1218Z" fill="#2A14AE"/>
</svg>
