<svg width="290" height="57" viewBox="0 0 290 57" fill="none" xmlns="http://www.w3.org/2000/svg">
<g filter="url(#filter0_d_33_9296)">
<path d="M152.211 44.1533C152.211 46.6479 150.7 48.1587 148.149 48.1587C145.413 48.1587 143.737 46.3687 143.737 43.3916C143.737 40.459 145.413 38.6816 148.104 38.6816C150.243 38.6816 151.856 39.9448 152.129 41.7983H150.205C149.926 40.8398 149.145 40.2686 148.111 40.2686C146.6 40.2686 145.692 41.4175 145.692 43.3662C145.692 45.353 146.657 46.5654 148.18 46.5654C149.431 46.5654 150.301 45.7974 150.339 44.6611L150.345 44.5151H148.352V43.1187H152.211V44.1533ZM159.825 48L159.127 45.7783H155.909L155.211 48H153.243L156.423 38.8403H158.676L161.863 48H159.825ZM157.496 40.5923L156.321 44.3438H158.715L157.54 40.5923H157.496ZM173.102 48H171.394V41.8174H171.343L168.855 47.9111H167.649L165.161 41.8174H165.11V48H163.402V38.8403H165.624L168.227 45.334H168.277L170.88 38.8403H173.102V48ZM181.293 46.4131V48H175.225V38.8403H181.293V40.4209H177.142V42.6299H181.059V44.1025H177.142V46.4131H181.293ZM184.325 48.0762C183.753 48.0762 183.303 47.6191 183.303 47.0542C183.303 46.4829 183.753 46.0322 184.325 46.0322C184.89 46.0322 185.347 46.4829 185.347 47.0542C185.347 47.6191 184.89 48.0762 184.325 48.0762ZM195.833 46.4131V48H189.911V38.8403H191.828V46.4131H195.833ZM203.638 46.4131V48H197.569V38.8403H203.638V40.4209H199.486V42.6299H203.403V44.1025H199.486V46.4131H203.638ZM211.62 48L210.922 45.7783H207.704L207.005 48H205.038L208.218 38.8403H210.471L213.658 48H211.62ZM209.291 40.5923L208.116 44.3438H210.509L209.335 40.5923H209.291ZM217.114 40.3384V43.2583H218.765C219.729 43.2583 220.294 42.7061 220.294 41.7983C220.294 40.9097 219.698 40.3384 218.746 40.3384H217.114ZM217.114 44.6484V48H215.197V38.8403H218.949C221.056 38.8403 222.262 39.9512 222.262 41.7603C222.262 42.9346 221.653 43.9502 220.599 44.3628L222.529 48H220.358L218.65 44.6484H217.114ZM225.96 48H224.125V38.8403H225.725L230.003 44.8071H230.054V38.8403H231.888V48H230.302L226.017 42.0015H225.96V48ZM235.066 48.0762C234.494 48.0762 234.044 47.6191 234.044 47.0542C234.044 46.4829 234.494 46.0322 235.066 46.0322C235.631 46.0322 236.088 46.4829 236.088 47.0542C236.088 47.6191 235.631 48.0762 235.066 48.0762ZM246.72 46.4131V48H240.652V38.8403H246.72V40.4209H242.569V42.6299H246.485V44.1025H242.569V46.4131H246.72ZM254.703 48L254.004 45.7783H250.786L250.088 48H248.12L251.3 38.8403H253.554L256.74 48H254.703ZM252.373 40.5923L251.199 44.3438H253.592L252.417 40.5923H252.373ZM260.197 40.3384V43.2583H261.847C262.812 43.2583 263.377 42.7061 263.377 41.7983C263.377 40.9097 262.78 40.3384 261.828 40.3384H260.197ZM260.197 44.6484V48H258.28V38.8403H262.031C264.138 38.8403 265.345 39.9512 265.345 41.7603C265.345 42.9346 264.735 43.9502 263.681 44.3628L265.611 48H263.44L261.733 44.6484H260.197ZM269.042 48H267.208V38.8403H268.807L273.086 44.8071H273.136V38.8403H274.971V48H273.384L269.099 42.0015H269.042V48Z" fill="white"/>
<path d="M277.695 41H276.662V36.9189H275.237V36.0679H279.123V36.9189H277.695V41ZM285.517 41H284.597V37.6709H284.57L283.23 40.9521H282.581L281.241 37.6709H281.214V41H280.294V36.0679H281.49L282.892 39.5645H282.919L284.321 36.0679H285.517V41Z" fill="#FDFDFD"/>
<path fill-rule="evenodd" clip-rule="evenodd" d="M243.5 15.023L243.5 15.0229C245.314 13.5145 247.014 12.1006 248.557 10.5882C249.914 9.26559 251.334 8.64913 253.332 8.85835C254.068 8.93513 254.816 8.91997 255.75 8.90102C256.225 8.89138 256.748 8.88077 257.343 8.88077C256.823 9.32773 256.332 9.74997 255.861 10.1548C254.694 11.1576 253.651 12.0535 252.615 12.9532C251.637 13.8019 250.668 14.654 249.666 15.5345C249.177 15.964 248.68 16.4003 248.171 16.8462L258 28.9961C257.384 28.9961 256.801 29.0036 256.242 29.0109C254.877 29.0286 253.655 29.0445 252.445 28.9438C251.898 28.8989 251.313 28.3011 250.932 27.8229C249.384 25.9406 247.868 24.0389 246.384 22.1778C245.806 21.4531 245.233 20.7345 244.665 20.0256C241.177 21.3215 241.277 23.6875 241.378 26.0809C241.418 27.0341 241.458 27.9917 241.272 28.8877H236.294V0H241.323V16.8462C242.064 16.2164 242.791 15.6125 243.5 15.023ZM207.237 25.3705L208.818 27.5898C204.726 30.7692 200.991 30.2051 198.379 26.1738C194.792 29.5961 190.433 30.418 185.501 29.0319C182.732 28.2548 180.884 26.6595 180.566 23.9919C180.277 21.6008 181.609 19.4413 184.624 18.4849C186.644 17.842 188.788 17.4982 190.929 17.1547C191.7 17.031 192.471 16.9074 193.235 16.77C193.67 16.693 194.121 16.6656 194.57 16.6382C195.188 16.6006 195.804 16.5631 196.369 16.3964C197.191 16.146 198.464 15.5034 198.459 15.0476C198.415 14.6092 198.265 14.1842 198.018 13.8014C197.772 13.4186 197.435 13.0868 197.03 12.8284C193.185 10.6801 188.253 11.9803 185.459 15.8509L181.091 14.4312C181.833 11.4423 184.284 10.0412 187.066 9.09224C188.936 8.41944 190.94 8.07996 192.96 8.09343C194.981 8.1069 196.978 8.47304 198.837 9.17071C202.195 10.4186 203.844 12.7125 203.925 15.8658C203.967 17.3474 203.963 18.8301 203.958 20.3127C203.954 21.507 203.951 22.7012 203.972 23.8948C203.972 24.5187 204.141 25.4789 204.582 25.6732C204.964 25.8339 205.502 25.7177 206.17 25.5732C206.495 25.5028 206.852 25.4256 207.237 25.3705ZM198.332 19.46C197.265 19.593 196.213 19.7099 195.173 19.8255C193.29 20.0347 191.444 20.2398 189.614 20.5285C187.855 20.8087 185.866 21.3841 185.874 23.2671C185.874 25.2136 187.901 25.5499 189.691 25.8114C189.753 25.8208 189.817 25.8307 189.88 25.8407C190.095 25.8746 190.313 25.9091 190.539 25.9235C195.36 26.2859 198.832 23.5212 198.341 19.46H198.332ZM6.71374 30.408L4 33.6061C4.30425 33.833 4.58615 34.0594 4.85833 34.2781L4.85837 34.2781C5.42448 34.7328 5.94853 35.1538 6.54413 35.4742C10.6147 37.6262 15.0118 38.5303 19.7312 37.7831C27.1685 36.6137 30.6285 32.986 30.6709 26.3693V16.4798V9.00752H26.1678L25.4385 11.8432C19.2351 7.44581 13.3624 7.08341 9.00344 10.7448C4.95828 14.1447 4.38587 21.0528 7.80348 25.226C11.4713 29.7056 17.2507 29.9672 25.2689 26.0143C25.5021 29.1191 24.5608 31.3607 22.0548 32.6011C16.3899 35.4032 11.378 33.7406 6.71374 30.408ZM18.0351 25.0392C13.6253 24.9271 10.8564 22.3604 10.9582 18.4711C11.0812 14.5146 13.9815 12.116 18.5906 12.2168C22.8053 12.3028 25.659 15.0675 25.5318 18.9419C25.4131 22.5136 22.1735 25.1476 18.0351 25.0392ZM108.231 30.3323L105.411 33.3399L104.805 33.9863C105.526 34.3807 106.272 34.7387 107.04 35.0585C107.808 35.341 108.572 35.6618 109.336 35.9828L109.336 35.9829C111.2 36.7657 113.067 37.5501 115.016 37.7859C122.584 38.7087 131.247 36.3998 130.704 26.2338C130.514 22.6814 130.562 19.1166 130.61 15.5517V15.5516V15.5514V15.5513V15.5512V15.5511V15.551V15.5509V15.5508C130.632 13.9494 130.653 12.3479 130.653 10.7476V8.95423H125.311V11.2407C125.301 12.2291 125.303 13.2208 125.306 14.2137V14.2142V14.2143V14.2145V14.2146V14.2147V14.2149V14.215V14.2152C125.312 16.5811 125.318 18.9546 125.154 21.3096C124.95 24.235 121.986 26.2562 118.539 26.1665C115.384 26.0806 113.387 24.3059 113.158 21.2236C113.064 19.9454 113.074 18.6605 113.084 17.3775V17.377V17.3765V17.376V17.3755V17.3749V17.3744V17.3739V17.3734C113.087 16.9778 113.09 16.5824 113.09 16.1874V8.98784H107.871C107.871 10.4278 107.834 11.8601 107.798 13.285V13.2851V13.2853V13.2854V13.2856V13.2857V13.2859V13.286V13.2861V13.2862V13.2863V13.2863V13.2864V13.2865V13.2866V13.2866V13.2867C107.718 16.4494 107.638 19.5754 107.96 22.6658C108.668 29.5104 117.131 32.4657 123.326 28.27C123.732 27.9962 124.125 27.7115 124.549 27.4045L124.549 27.4044L124.55 27.4037L124.552 27.4022C124.734 27.27 124.923 27.1336 125.12 26.9922C125.446 30.6125 123.941 32.7309 120.235 33.5566C115.652 34.584 111.594 33.6612 108.231 30.3323ZM83.4787 27.5442L81.9437 25.3474C81.596 25.3924 81.2572 25.4632 80.9366 25.5302C80.2447 25.6747 79.6376 25.8016 79.2088 25.6127C78.7339 25.396 78.5897 24.3386 78.5897 23.6512C78.5605 22.3014 78.5611 20.9535 78.5616 19.6069V19.6068V19.6067V19.6066V19.6066V19.6065V19.6064C78.5621 18.2136 78.5627 16.8222 78.5303 15.4317C78.471 12.7865 77.0378 10.8288 74.4385 9.52117C69.8464 7.21598 62.2352 7.78016 58.2791 10.8699C57.518 11.4672 56.9378 12.2427 56.3198 13.0688C56.0254 13.4622 55.7225 13.8672 55.3873 14.2698L60.0939 15.8277C60.2449 15.6392 60.3803 15.4628 60.5096 15.2944L60.5097 15.2942L60.51 15.2939L60.5107 15.2929L60.5107 15.2929C60.6679 15.0882 60.8159 14.8953 60.9716 14.7069C63.3461 11.8376 68.4302 10.8923 71.7799 12.8389C72.1823 13.1026 72.516 13.439 72.7588 13.8256C73.0016 14.2122 73.1478 14.6401 73.1877 15.0805C73.1877 15.5326 71.9156 16.1453 71.0676 16.3919C70.499 16.556 69.8865 16.5941 69.271 16.6323C68.8216 16.6602 68.3707 16.6883 67.9341 16.7655C67.1687 16.9034 66.3971 17.0275 65.625 17.1518L65.625 17.1518L65.6249 17.1518L65.6249 17.1518L65.6249 17.1518L65.6248 17.1518L65.6248 17.1518C63.4882 17.4956 61.3478 17.84 59.3265 18.4767C56.3625 19.4144 54.9293 21.6598 55.2346 23.98C55.5823 26.6177 57.4099 28.2504 60.183 29.0237C65.2034 30.4173 69.6259 29.5916 73.2004 26.0012C75.0322 30.1595 79.6625 30.8881 83.4787 27.5442ZM71.3592 19.6595C71.9767 19.6011 72.6111 19.5412 73.2682 19.4742C73.3318 21.9737 72.4965 23.9426 70.0542 25.0448C67.2599 26.2777 64.3087 26.4346 61.5738 24.9402C59.9158 24.0248 60.2508 21.9774 62.2437 21.204C63.6868 20.6464 65.3024 20.4028 66.8791 20.165L67.1242 20.128C68.4921 19.9302 69.8769 19.7994 71.3592 19.6595ZM148.722 25.5885C144.135 26.9672 140.323 25.6184 137.957 21.9869L133.093 22.9247C133.476 23.4321 133.809 23.9331 134.128 24.4117C134.775 25.385 135.361 26.2662 136.18 26.9223C140.259 30.1989 148.46 30.6435 153.056 27.9572C155.316 26.6384 156.669 24.7591 156.38 22.2896C156.1 19.891 154.247 18.5908 151.809 17.8772C150.666 17.5585 149.504 17.2941 148.328 17.0851C147.616 16.9492 146.898 16.829 146.18 16.7089C144.748 16.4691 143.315 16.2293 141.925 15.8634C141.132 15.6579 139.911 14.7314 140 14.3167C140.118 13.8665 140.336 13.4415 140.643 13.0668C140.949 12.6921 141.338 12.3752 141.785 12.1348C144.898 10.6852 148.417 11.7836 150.503 14.7202L155.057 13.5732C154.754 13.1994 154.486 12.8257 154.226 12.4649C153.724 11.7653 153.256 11.1145 152.64 10.6067C149.269 7.83075 142.468 7.32637 138.529 9.41113C135.998 10.7487 134.603 12.6092 134.95 15.2731C135.277 17.8174 137.274 18.9793 139.818 19.6145C140.916 19.8923 142.042 20.0883 143.167 20.284C143.358 20.3173 143.549 20.3505 143.74 20.3841C144.297 20.4829 144.864 20.5572 145.43 20.6315C146.621 20.7875 147.81 20.9434 148.896 21.3256C149.583 21.5693 150.116 22.158 150.648 22.7449C150.89 23.013 151.133 23.2807 151.39 23.515C151.111 23.7395 150.845 23.9985 150.58 24.2574C150.006 24.817 149.433 25.3765 148.722 25.5885ZM233.243 21.5143C232.161 26.9056 225.911 30.3353 219.25 29.6217C212.198 28.8745 207.962 24.6639 208.047 18.787C208.124 13.1417 212.504 8.69943 218.537 8.13901C224.868 7.5487 230.291 10.3508 231.58 15.0434L226.836 16.2128C224.389 12.3945 222.137 11.3558 218.389 12.3011C215.328 13.067 213.195 15.9886 213.394 19.1494C213.606 22.5716 215.849 24.9291 219.517 25.583C223.448 26.2816 226.454 24.6826 228.485 20.6961L233.243 21.5143ZM156.601 12.404H161.609C161.609 15.789 161.609 18.89 161.617 21.9685C161.583 25.1367 162.677 27.7296 166.247 29.0672C169.733 30.3673 174.287 29.635 176.89 27.3485C179.409 25.1405 179.21 24.1168 176.042 22.6672C175.829 22.8997 175.627 23.1424 175.426 23.3844L175.426 23.3847C174.997 23.9009 174.571 24.4136 174.037 24.8154C171.56 26.6723 167.545 25.8541 167.286 23.2836C167.041 20.8097 167.094 18.3122 167.149 15.7455L167.149 15.7441C167.173 14.6288 167.197 13.5005 167.197 12.3555H177.293V8.81736H167.032V2.09234L161.609 3.10855V8.9145H156.601V12.404ZM104.075 12.0159L104.067 12.0317L104.066 12.0333C101.549 17.4788 99.0835 22.8128 96.5542 28.1255C96.4191 28.4102 95.9829 28.5855 95.55 28.7595C95.3579 28.8367 95.1664 28.9136 95.0022 28.9998C94.9684 29.0196 94.9178 29.0131 94.8664 29.0065C94.8405 29.0031 94.8144 28.9998 94.7902 28.9998C89.6129 29.1417 89.6087 29.1417 87.6455 24.89C85.2908 19.7715 82.9417 14.6531 80.5983 9.53458C80.5509 9.3217 80.5282 9.10515 80.5304 8.88824C82.1021 8.83014 83.6762 8.84884 85.2455 8.94426C85.7077 8.99283 86.2505 9.69149 86.4709 10.1809C87.9651 13.5624 89.4244 16.9583 90.8832 20.3534L90.8837 20.3546L90.8843 20.3561C91.3915 21.5364 91.8987 22.7167 92.4072 23.8962C92.4802 24.0637 92.5659 24.2256 92.6958 24.471L92.6961 24.4716C92.7777 24.6256 92.8767 24.8125 93.0009 25.0544C93.3941 24.1513 93.7789 23.2678 94.1573 22.3991L94.1599 22.3932C95.327 19.7137 96.4327 17.1751 97.5337 14.6344C97.6923 14.2701 97.844 13.9026 97.996 13.5343L97.9961 13.5339C98.1324 13.2035 98.2691 12.8724 98.4114 12.5422C99.201 10.7047 99.6266 9.71413 100.378 9.22591C101.258 8.65493 102.583 8.77098 105.459 9.02273C104.995 10.0245 104.534 11.0221 104.075 12.0159ZM39.8762 11.8173L39.0282 8.99276H34.8558V28.8615H39.9992C39.9992 27.9138 39.9898 26.9786 39.9806 26.0526C39.9586 23.8611 39.9372 21.721 40.0416 19.5884C40.1144 17.8572 40.4422 16.1416 41.0168 14.4849C41.6104 12.8186 44.074 11.6716 45.9694 12.0041C47.8648 12.3366 49.0308 13.4425 49.2937 15.1947C49.3686 15.4517 49.4708 15.7019 49.599 15.942L54.0427 14.7128C53.3728 11.8808 52.4739 9.50835 49.2768 8.53696C45.2952 7.33393 42.327 8.70508 39.8762 11.8173Z" fill="white"/>
</g>
<defs>
<filter id="filter0_d_33_9296" x="0" y="0" width="289.517" height="56.1582" filterUnits="userSpaceOnUse" color-interpolation-filters="sRGB">
<feFlood flood-opacity="0" result="BackgroundImageFix"/>
<feColorMatrix in="SourceAlpha" type="matrix" values="0 0 0 0 0 0 0 0 0 0 0 0 0 0 0 0 0 0 127 0" result="hardAlpha"/>
<feOffset dy="4"/>
<feGaussianBlur stdDeviation="2"/>
<feComposite in2="hardAlpha" operator="out"/>
<feColorMatrix type="matrix" values="0 0 0 0 0 0 0 0 0 0 0 0 0 0 0 0 0 0 0.25 0"/>
<feBlend mode="normal" in2="BackgroundImageFix" result="effect1_dropShadow_33_9296"/>
<feBlend mode="normal" in="SourceGraphic" in2="effect1_dropShadow_33_9296" result="shape"/>
</filter>
</defs>
</svg>
