<svg width="16" height="17" viewBox="0 0 16 17" fill="none" xmlns="http://www.w3.org/2000/svg">
<g>
<path d="M7.24593 0.860574C7.44594 0.647285 7.71718 0.527466 8 0.527466C8.28282 0.527466 8.55406 0.647285 8.75407 0.860574L11.1997 3.46936V1.99829C11.1997 1.84742 11.2559 1.70273 11.3559 1.59605C11.4559 1.48937 11.5916 1.42943 11.733 1.42943H12.7996C12.941 1.42943 13.0767 1.48937 13.1767 1.59605C13.2767 1.70273 13.3329 1.84742 13.3329 1.99829V5.7448L15.8436 8.42185C15.8932 8.47474 15.9325 8.53753 15.9594 8.60664C15.9862 8.67574 16 8.74981 16 8.8246C16 8.8994 15.9862 8.97347 15.9594 9.04257C15.9325 9.11168 15.8932 9.17447 15.8436 9.22736C15.794 9.28025 15.7352 9.3222 15.6704 9.35083C15.6056 9.37945 15.5362 9.39418 15.466 9.39418C15.3959 9.39418 15.3265 9.37945 15.2617 9.35083C15.1969 9.3222 15.1381 9.28025 15.0885 9.22736L8 1.66494L2.66712 7.35353V14.5132C2.66712 14.6641 2.7233 14.8088 2.82331 14.9154C2.92332 15.0221 3.05897 15.0821 3.2004 15.0821H7.46671C7.60815 15.0821 7.74379 15.142 7.8438 15.2487C7.94381 15.3554 8 15.5 8 15.6509C8 15.8018 7.94381 15.9465 7.8438 16.0532C7.74379 16.1598 7.60815 16.2198 7.46671 16.2198H3.2004C2.77609 16.2198 2.36916 16.04 2.06913 15.7199C1.7691 15.3999 1.60054 14.9658 1.60054 14.5132V8.49125L0.91153 9.22736C0.861947 9.28025 0.803084 9.3222 0.7383 9.35083C0.673517 9.37945 0.604083 9.39418 0.533962 9.39418C0.463841 9.39418 0.394407 9.37945 0.329624 9.35083C0.26484 9.3222 0.205977 9.28025 0.156394 9.22736C0.106811 9.17447 0.0674796 9.11168 0.0406455 9.04257C0.0138113 8.97347 0 8.8994 0 8.8246C0 8.74981 0.0138113 8.67574 0.0406455 8.60664C0.0674796 8.53753 0.106811 8.47474 0.156394 8.42185L7.24593 0.860574Z" fill="#2d2e3242"/>
<path d="M2.58234 7.34802L8.00006 1.60443L14.7342 8.78392C14.7342 8.78392 11.4937 8.2711 9.41778 10.5275C6.75186 13.4252 7.64563 15.348 7.64563 15.348L2.22791 15.1942L2.58234 7.34802Z" fill="#2d2e3242"/>
<path d="M11.8035 10.2987C11.9649 9.71482 12.7435 9.71482 12.9058 10.2987L12.9444 10.4396C12.9685 10.527 13.0107 10.6076 13.068 10.6755C13.1253 10.7433 13.1962 10.7966 13.2754 10.8315C13.3547 10.8664 13.4403 10.882 13.526 10.8771C13.6117 10.8723 13.6952 10.8471 13.7705 10.8034L13.8925 10.733C14.3957 10.4415 14.9464 11.0263 14.6729 11.5606L14.6056 11.6901C14.5646 11.77 14.541 11.8587 14.5366 11.9495C14.5321 12.0404 14.5468 12.1312 14.5797 12.2152C14.6125 12.2992 14.6627 12.3744 14.7264 12.4351C14.7902 12.4959 14.866 12.5407 14.9482 12.5664L15.0819 12.6092C15.6308 12.7806 15.6308 13.6073 15.0819 13.7797L14.9473 13.8207C14.8651 13.8465 14.7894 13.8915 14.7258 13.9524C14.6621 14.0133 14.6121 14.0886 14.5794 14.1727C14.5467 14.2569 14.5322 14.3477 14.5369 14.4386C14.5415 14.5294 14.5653 14.618 14.6065 14.6979L14.6729 14.8274C14.9464 15.3617 14.3957 15.9465 13.8925 15.656L13.7705 15.5846C13.6952 15.5411 13.6118 15.516 13.5262 15.5113C13.4406 15.5065 13.3551 15.5221 13.276 15.557C13.1969 15.5919 13.1261 15.6452 13.0689 15.7129C13.0117 15.7806 12.9694 15.8611 12.9453 15.9484L12.9049 16.0903C12.7435 16.6732 11.9649 16.6732 11.8026 16.0903L11.764 15.9474C11.7397 15.8602 11.6973 15.7798 11.64 15.7122C11.5826 15.6446 11.5117 15.5915 11.4325 15.5567C11.3532 15.522 11.2677 15.5066 11.1821 15.5116C11.0965 15.5166 11.0131 15.5418 10.9379 15.5855L10.8159 15.656C10.3127 15.9465 9.76201 15.3617 10.0356 14.8274L10.1029 14.6979C10.1438 14.6179 10.1674 14.5293 10.1719 14.4384C10.1764 14.3476 10.1616 14.2568 10.1288 14.1728C10.0959 14.0888 10.0458 14.0136 9.98199 13.9528C9.91821 13.8921 9.84243 13.8472 9.76021 13.8216L9.62746 13.7797C9.07763 13.6073 9.07763 12.7806 9.62746 12.6083L9.76021 12.5673C9.84256 12.5417 9.91846 12.4969 9.98233 12.436C10.0462 12.3752 10.0964 12.3 10.1293 12.2158C10.1622 12.1317 10.1768 12.0408 10.1723 11.9498C10.1677 11.8588 10.144 11.7701 10.1029 11.6901L10.0365 11.5606C9.76201 11.0263 10.3127 10.4415 10.8159 10.732L10.9379 10.8034C11.0132 10.8469 11.0967 10.872 11.1822 10.8767C11.2678 10.8815 11.3533 10.8658 11.4324 10.831C11.5116 10.7961 11.5823 10.7428 11.6396 10.6751C11.6968 10.6074 11.739 10.5269 11.7631 10.4396L11.8035 10.2987ZM13.6997 13.194C13.6997 13.0064 13.6649 12.8206 13.5972 12.6473C13.5296 12.474 13.4305 12.3165 13.3056 12.1838C13.1806 12.0511 13.0323 11.9459 12.8691 11.8741C12.7059 11.8023 12.5309 11.7654 12.3542 11.7654C12.1775 11.7654 12.0026 11.8023 11.8393 11.8741C11.6761 11.9459 11.5278 12.0511 11.4028 12.1838C11.2779 12.3165 11.1788 12.474 11.1112 12.6473C11.0436 12.8206 11.0088 13.0064 11.0088 13.194C11.0088 13.5729 11.1505 13.9363 11.4028 14.2042C11.6552 14.4721 11.9974 14.6226 12.3542 14.6226C12.711 14.6226 13.0533 14.4721 13.3056 14.2042C13.5579 13.9363 13.6997 13.5729 13.6997 13.194Z" fill="#2d2e3242"/>
<path d="M8.05059 4.11719C7.5599 4.11719 7.08022 4.26456 6.67222 4.54067C6.26422 4.81679 5.94622 5.20924 5.75844 5.66839C5.57066 6.12755 5.52152 6.6328 5.61725 7.12023C5.71298 7.60767 5.94928 8.05542 6.29625 8.40684C6.64323 8.75826 7.0853 8.99759 7.56657 9.09454C8.04784 9.1915 8.54669 9.14174 9.00004 8.95155C9.45338 8.76136 9.84086 8.43929 10.1135 8.02606C10.3861 7.61282 10.5316 7.127 10.5316 6.63001C10.5309 5.96378 10.2693 5.32505 9.80417 4.85395C9.33904 4.38286 8.70839 4.11789 8.05059 4.11719ZM8.33686 7.78977H8.24144V7.98306C8.24144 8.03433 8.22133 8.08349 8.18554 8.11974C8.14975 8.15599 8.10121 8.17636 8.05059 8.17636C7.99998 8.17636 7.95144 8.15599 7.91564 8.11974C7.87985 8.08349 7.85975 8.03433 7.85975 7.98306V7.78977H7.47805C7.42744 7.78977 7.37889 7.76941 7.3431 7.73316C7.30731 7.69691 7.28721 7.64774 7.28721 7.59648C7.28721 7.54521 7.30731 7.49605 7.3431 7.4598C7.37889 7.42355 7.42744 7.40318 7.47805 7.40318H8.33686C8.41279 7.40318 8.4856 7.37264 8.53929 7.31826C8.59297 7.26389 8.62313 7.19014 8.62313 7.11324C8.62313 7.03635 8.59297 6.9626 8.53929 6.90822C8.4856 6.85385 8.41279 6.8233 8.33686 6.8233H7.76432C7.58717 6.8233 7.41727 6.75202 7.292 6.62515C7.16673 6.49828 7.09636 6.3262 7.09636 6.14677C7.09636 5.96735 7.16673 5.79527 7.292 5.6684C7.41727 5.54152 7.58717 5.47024 7.76432 5.47024H7.85975V5.27695C7.85975 5.22569 7.87985 5.17652 7.91564 5.14027C7.95144 5.10402 7.99998 5.08366 8.05059 5.08366C8.10121 5.08366 8.14975 5.10402 8.18554 5.14027C8.22133 5.17652 8.24144 5.22569 8.24144 5.27695V5.47024H8.62313C8.67375 5.47024 8.72229 5.49061 8.75808 5.52686C8.79387 5.56311 8.81398 5.61227 8.81398 5.66354C8.81398 5.7148 8.79387 5.76397 8.75808 5.80022C8.72229 5.83647 8.67375 5.85683 8.62313 5.85683H7.76432C7.6884 5.85683 7.61559 5.88738 7.5619 5.94175C7.50821 5.99613 7.47805 6.06988 7.47805 6.14677C7.47805 6.22367 7.50821 6.29742 7.5619 6.35179C7.61559 6.40617 7.6884 6.43671 7.76432 6.43671H8.33686C8.51402 6.43671 8.68392 6.50799 8.80919 6.63486C8.93445 6.76174 9.00483 6.93382 9.00483 7.11324C9.00483 7.29267 8.93445 7.46475 8.80919 7.59162C8.68392 7.71849 8.51402 7.78977 8.33686 7.78977Z" fill="#2d2e3242"/>
</g>
</svg>
