<svg width="19" height="17" viewBox="0 0 19 17" fill="none" xmlns="http://www.w3.org/2000/svg">
<path d="M0.5 8.04848C0.5 7.87326 0.575408 7.69042 0.741307 7.5533L8.59887 0.887423C9.16443 0.40748 9.85819 0.40748 10.4162 0.887423L14.262 4.14799V2.70816C14.262 2.37296 14.4807 2.15965 14.805 2.15965H15.6119C15.9437 2.15965 16.1548 2.37296 16.1548 2.70816V5.75541L18.2662 7.5533C18.4246 7.69042 18.5 7.84279 18.5 8.07133C18.5 8.437 18.2134 8.65793 17.859 8.65793C17.6479 8.65793 17.4744 8.54365 17.3236 8.41415L9.77524 2.01491C9.60934 1.86255 9.40574 1.86255 9.23984 2.01491L1.69145 8.41415C1.5331 8.54365 1.35966 8.65793 1.14851 8.65793C0.741307 8.65793 0.5 8.36082 0.5 8.04848ZM2.85274 14.8439V8.81029L9.05132 3.56139C9.33033 3.32523 9.66967 3.31761 9.95622 3.56139L16.1548 8.81029V14.8439C16.1548 15.9028 15.5289 16.5275 14.4656 16.5275H4.54943C3.48617 16.5275 2.85274 15.9028 2.85274 14.8439ZM11.4418 15.3009V10.2654C11.4418 9.91492 11.2155 9.68638 10.8687 9.68638H8.13134C7.78446 9.68638 7.55069 9.91492 7.55069 10.2654V15.3009H11.4418Z" fill="#2A14AE"/>
</svg>
