<svg width="21" height="21" viewBox="0 0 21 21" fill="none" xmlns="http://www.w3.org/2000/svg">
<path d="M10.495 18.5275C11.5914 18.5275 12.6218 18.3193 13.5861 17.9029C14.5504 17.4866 15.4007 16.9083 16.1372 16.1681C16.8736 15.4279 17.4515 14.5754 17.8709 13.6105C18.2903 12.6456 18.5 11.6179 18.5 10.5275C18.5 9.43701 18.2903 8.40934 17.8709 7.44443C17.4515 6.47954 16.8719 5.62701 16.1322 4.88682C15.3925 4.14663 14.5405 3.56835 13.5762 3.15201C12.6119 2.73565 11.5815 2.52747 10.4851 2.52747C9.39536 2.52747 8.36832 2.73565 7.40403 3.15201C6.43974 3.56835 5.59102 4.14663 4.85789 4.88682C4.12476 5.62701 3.5485 6.47954 3.1291 7.44443C2.7097 8.40934 2.5 9.43701 2.5 10.5275C2.5 11.6179 2.7097 12.6456 3.1291 13.6105C3.5485 14.5754 4.12641 15.4279 4.86284 16.1681C5.59928 16.9083 6.44964 17.4866 7.41393 17.9029C8.37822 18.3193 9.40526 18.5275 10.495 18.5275ZM10.495 17.0207C9.59679 17.0207 8.75634 16.8538 7.97369 16.52C7.19101 16.1863 6.50412 15.722 5.913 15.1272C5.32187 14.5324 4.85954 13.8418 4.52601 13.0554C4.19247 12.2689 4.0257 11.4263 4.0257 10.5275C4.0257 9.62867 4.19082 8.78604 4.52106 7.99958C4.85129 7.21313 5.31197 6.52251 5.90309 5.92771C6.49422 5.33291 7.18111 4.86865 7.96376 4.5349C8.74644 4.20116 9.58689 4.03429 10.4851 4.03429C11.39 4.03429 12.2337 4.20116 13.0164 4.5349C13.7991 4.86865 14.4876 5.33291 15.082 5.92771C15.6765 6.52251 16.1421 7.21313 16.4789 7.99958C16.8158 8.78604 16.9842 9.62867 16.9842 10.5275C16.9842 11.4263 16.8174 12.2689 16.4839 13.0554C16.1503 13.8418 15.688 14.5324 15.0969 15.1272C14.5058 15.722 13.8172 16.1863 13.0313 16.52C12.2453 16.8538 11.3999 17.0207 10.495 17.0207Z" fill="#2A14AE"/>
<path d="M10.5051 14.7112C11.2647 14.7112 11.9598 14.5212 12.5906 14.1412C13.2213 13.7612 13.7249 13.2556 14.1014 12.6245C14.4779 11.9933 14.6661 11.2978 14.6661 10.5377C14.6661 9.78432 14.4762 9.0904 14.0965 8.45595C13.7167 7.8215 13.2114 7.31427 12.5807 6.93427C11.9499 6.55426 11.2581 6.36426 10.5051 6.36426C9.74558 6.36426 9.05043 6.55426 8.41967 6.93427C7.78893 7.31427 7.28367 7.81985 6.90388 8.45099C6.52411 9.08214 6.33423 9.77772 6.33423 10.5377C6.33423 11.2911 6.52411 11.9851 6.90388 12.6195C7.28367 13.254 7.78893 13.7612 8.41967 14.1412C9.05043 14.5212 9.74558 14.7112 10.5051 14.7112ZM10.5051 13.3333C9.99657 13.3333 9.53093 13.2061 9.10823 12.9516C8.68552 12.6972 8.34868 12.3568 8.09769 11.9306C7.84672 11.5043 7.72124 11.04 7.72124 10.5377C7.72124 10.0289 7.84672 9.56294 8.09769 9.13997C8.34868 8.71701 8.68552 8.37831 9.10823 8.12386C9.53093 7.86942 9.99657 7.7422 10.5051 7.7422C11.0071 7.7422 11.4694 7.86942 11.8921 8.12386C12.3148 8.37831 12.6533 8.71866 12.9076 9.14493C13.1619 9.5712 13.289 10.0355 13.289 10.5377C13.289 11.0466 13.1619 11.5125 12.9076 11.9355C12.6533 12.3585 12.3165 12.6972 11.8971 12.9516C11.4777 13.2061 11.0137 13.3333 10.5051 13.3333Z" fill="#2A14AE"/>
</svg>
