<svg width="14" height="19" viewBox="0 0 14 19" fill="none" xmlns="http://www.w3.org/2000/svg">
<path d="M3.08928 1.57645H10.8636C10.8085 0.892331 10.3919 0.527466 9.62942 0.527466H4.31555C3.55306 0.527466 3.13644 0.892331 3.08928 1.57645ZM1.73723 3.78084H12.2077C12.0977 3.05872 11.7204 2.64824 10.8793 2.64824H3.06569C2.22459 2.64824 1.84728 3.05872 1.73723 3.78084ZM2.57833 18.5275H11.6182C13.1196 18.5275 14 17.6837 14 16.057V7.4599C14 5.83321 13.1196 4.98946 11.4217 4.98946H2.57833C0.880404 4.98946 0 5.83321 0 7.4599V16.057C0 17.6837 0.880404 18.5275 2.57833 18.5275ZM4.49635 13.7386C3.08141 13.7386 2.01235 14.4759 1.54071 15.3501V7.58152C1.54071 6.84419 1.94161 6.47932 2.67266 6.47932H11.3273C12.0505 6.47932 12.4593 6.84419 12.4593 7.58152V15.008C11.854 14.3011 10.8164 13.7538 9.47221 13.7538C7.23975 13.7538 5.83268 15.2893 5.83268 16.4979C5.83268 16.7335 5.87984 16.9084 5.96631 17.0376H4.98372C4.92869 16.8704 4.90511 16.6803 4.90511 16.4827C4.90511 15.6085 5.34531 14.7572 6.08422 14.1111C5.65974 13.8678 5.13307 13.7386 4.49635 13.7386ZM9.47221 12.8721C10.4155 12.8721 11.2016 12.0663 11.2016 11.0249C11.2016 9.99875 10.4076 9.23101 9.47221 9.23101C8.53678 9.23101 7.73498 10.0216 7.73498 11.0401C7.74284 12.0663 8.53678 12.8721 9.47221 12.8721ZM4.49635 12.9709C5.31387 12.9709 6.00561 12.2716 6.00561 11.3594C6.00561 10.47 5.31387 9.79351 4.49635 9.79351C3.67883 9.79351 2.97923 10.4776 2.98709 11.367C2.98709 12.2716 3.67883 12.9709 4.49635 12.9709Z" fill="#2d2e3242"/>
</svg>
