<svg width="15" height="15" viewBox="0 0 15 15" fill="none" xmlns="http://www.w3.org/2000/svg">
<path d="M0 7.51902C0 7.98393 0.154275 8.37066 0.462825 8.67921C0.771358 8.98775 1.16231 9.14201 1.63569 9.14201H5.84531V13.3643C5.84531 13.8377 6.0017 14.2286 6.31448 14.5372C6.62723 14.8457 7.0203 15 7.49368 15C7.96704 15 8.36222 14.8457 8.67921 14.5372C8.9962 14.2286 9.15468 13.8377 9.15468 13.3643V9.14201H13.377C13.842 9.14201 14.2288 8.98775 14.5373 8.67921C14.8458 8.37066 15 7.98393 15 7.51902C15 7.02875 14.8458 6.62722 14.5373 6.31445C14.2288 6.00169 13.842 5.84532 13.377 5.84532H9.15468V1.63566C9.15468 1.1623 8.9962 0.77135 8.67921 0.462799C8.36222 0.154266 7.96704 0 7.49368 0C7.0203 0 6.62723 0.154266 6.31448 0.462799C6.0017 0.77135 5.84531 1.1623 5.84531 1.63566V5.84532H1.63569C1.16231 5.84532 0.771358 6.00169 0.462825 6.31445C0.154275 6.62722 0 7.02875 0 7.51902Z" fill="#FFFFFA"/>
</svg>
