<svg width="24" height="24" viewBox="0 0 24 24" fill="none" xmlns="http://www.w3.org/2000/svg">
<path d="M10.8853 24H13.1062C13.5848 24 14 23.862 14.3518 23.5859C14.7037 23.3099 14.9331 22.9409 15.0401 22.4789L15.4624 20.6704L15.7156 20.5775L17.2948 21.5493C17.7002 21.8028 18.1238 21.9014 18.5658 21.8451C19.0077 21.7887 19.4004 21.5887 19.7437 21.2451L21.2723 19.7155C21.6157 19.3662 21.8156 18.969 21.8719 18.524C21.9281 18.0789 21.8296 17.6592 21.5763 17.2648L20.5967 15.693L20.6896 15.4479L22.4884 15.0254C22.9444 14.9127 23.3103 14.6803 23.5861 14.3282C23.862 13.9761 24 13.5634 24 13.0902V10.9437C24 10.4704 23.862 10.0564 23.5861 9.70142C23.3103 9.3465 22.9444 9.11551 22.4884 9.00846L20.6981 8.56904L20.6052 8.31551L21.5848 6.75213C21.8381 6.35213 21.9366 5.93241 21.8803 5.49297C21.8241 5.05354 21.6242 4.65636 21.2807 4.30144L19.7437 2.77186C19.4117 2.4282 19.0247 2.2282 18.5827 2.17186C18.1408 2.11552 17.7171 2.21129 17.3117 2.45917L15.7325 3.43101L15.4624 3.32959L15.0401 1.52115C14.9331 1.05918 14.7037 0.690181 14.3518 0.414157C14 0.138052 13.5848 0 13.1062 0L10.8853 0C10.4068 0 9.99295 0.139437 9.6439 0.418311C9.29485 0.697196 9.06403 1.06481 8.95143 1.52115L8.53763 3.32959L8.25896 3.43101L6.68824 2.45917C6.28289 2.21129 5.85924 2.11552 5.4173 2.17186C4.97536 2.2282 4.58831 2.4282 4.25616 2.77186L2.71922 4.30144C2.37016 4.65636 2.16889 5.05354 2.1154 5.49297C2.06193 5.93241 2.16186 6.35213 2.41519 6.75213L3.39479 8.31551L3.29346 8.56904L1.5116 9.00846C1.04996 9.12114 0.682616 9.35354 0.409577 9.70566C0.136526 10.0578 0 10.4704 0 10.9437L0 13.0902C0 13.5634 0.137932 13.9761 0.413796 14.3282C0.689661 14.6803 1.0556 14.9127 1.5116 15.0254L3.31034 15.4479L3.40323 15.693L2.42365 17.2648C2.1703 17.6592 2.07037 18.0789 2.12386 18.524C2.17733 18.969 2.37579 19.3662 2.71922 19.7155L4.25616 21.2451C4.59395 21.5887 4.98522 21.7887 5.42998 21.8451C5.87473 21.9014 6.29697 21.8028 6.69668 21.5493L8.27586 20.5775L8.53763 20.6704L8.95143 22.4789C9.06403 22.9409 9.29485 23.3099 9.6439 23.5859C9.99295 23.862 10.4068 24 10.8853 24ZM11.2653 21.7859C11.0795 21.7859 10.9697 21.6958 10.9359 21.5155L10.311 18.8704C9.95636 18.7916 9.60872 18.6817 9.26812 18.5409C8.92751 18.4 8.60802 18.2338 8.30964 18.0423L5.98732 19.4789C5.83532 19.5803 5.69176 19.5634 5.55664 19.4282L4.53483 18.4056C4.41097 18.2817 4.3969 18.138 4.49261 17.9747L5.9282 15.6507C5.75369 15.3578 5.59746 15.0437 5.45953 14.7085C5.3216 14.3732 5.21322 14.031 5.13441 13.6817L2.48276 13.0564C2.30261 13.0225 2.21253 12.9127 2.21253 12.7268L2.21253 11.2986C2.21253 11.1127 2.30261 11.0028 2.48276 10.969L5.12597 10.3437C5.21041 9.97749 5.32301 9.62397 5.46375 9.28312C5.6045 8.94228 5.7565 8.63383 5.91976 8.35777L4.48415 6.03382C4.38282 5.87044 4.3969 5.72678 4.52639 5.60284L5.5482 4.58875C5.68331 4.46481 5.82968 4.44791 5.98732 4.53806L8.29274 5.95777C8.55171 5.79439 8.86135 5.63805 9.22166 5.48875C9.58197 5.33946 9.94509 5.21974 10.311 5.12959L10.9359 2.48453C10.9697 2.30425 11.0795 2.2141 11.2653 2.2141L12.7347 2.2141C12.9205 2.2141 13.0302 2.30425 13.064 2.48453L13.6889 5.1465C14.0605 5.22538 14.4152 5.33664 14.753 5.4803C15.0908 5.62396 15.406 5.78593 15.6988 5.96622L17.9958 4.55495C18.1534 4.45917 18.2997 4.47326 18.4349 4.59721L19.4651 5.61128C19.589 5.74087 19.6002 5.88735 19.4988 6.05073L18.0717 8.35777C18.2351 8.63383 18.3885 8.94228 18.5321 9.28312C18.6756 9.62397 18.7868 9.97467 18.8655 10.3352L21.5172 10.969C21.6974 11.0028 21.7875 11.1127 21.7875 11.2986V12.7268C21.7875 12.9127 21.6974 13.0225 21.5172 13.0564L18.857 13.6817C18.7839 14.031 18.677 14.3761 18.5362 14.7169C18.3954 15.0578 18.2378 15.369 18.0634 15.6507L19.4905 17.9662C19.5919 18.1296 19.5806 18.2732 19.4566 18.3972L18.4349 19.4113C18.2941 19.5465 18.1477 19.5662 17.9958 19.4704L15.6903 18.0423C15.3863 18.2338 15.0725 18.3986 14.7487 18.5366C14.425 18.6747 14.0718 18.7859 13.6889 18.8704L13.064 21.5155C13.0302 21.6958 12.9205 21.7859 12.7347 21.7859H11.2653ZM12 16.124C12.7544 16.124 13.4426 15.938 14.0647 15.5662C14.6868 15.1944 15.1837 14.6958 15.5553 14.0704C15.9268 13.4451 16.1125 12.7549 16.1125 12C16.1125 11.2451 15.9268 10.5578 15.5553 9.93804C15.1837 9.31832 14.6868 8.82255 14.0647 8.45073C13.4426 8.07889 12.7544 7.89297 12 7.89297C11.2456 7.89297 10.5573 8.07889 9.93525 8.45073C9.31315 8.82255 8.81491 9.31832 8.44052 9.93804C8.06614 10.5578 7.87894 11.2451 7.87894 12C7.87894 12.7549 8.06614 13.4437 8.44052 14.0662C8.81491 14.6888 9.31315 15.1873 9.93525 15.562C10.5573 15.9366 11.2456 16.124 12 16.124ZM12 14.1211C11.6115 14.1211 11.2583 14.0254 10.9402 13.8338C10.6221 13.6423 10.3673 13.3859 10.1759 13.0648C9.9845 12.7437 9.88879 12.3887 9.88879 12C9.88879 11.6169 9.9845 11.2662 10.1759 10.9479C10.3673 10.6296 10.6235 10.3747 10.9444 10.1831C11.2653 9.99157 11.6172 9.89579 12 9.89579C12.3828 9.89579 12.7319 9.99157 13.0471 10.1831C13.3624 10.3747 13.6157 10.6296 13.8072 10.9479C13.9986 11.2662 14.0943 11.6169 14.0943 12C14.0943 12.3831 13.9986 12.7366 13.8072 13.0606C13.6157 13.3845 13.3624 13.6423 13.0471 13.8338C12.7319 14.0254 12.3828 14.1211 12 14.1211Z" fill="white"/>
</svg>
